<svg xmlns="http://www.w3.org/2000/svg" viewBox="0 0 800 380" width="800" height="380">
    <rect width="800" height="380" fill="#FAFAFA" rx="6" />
    <text x="400" y="32" font-family="'Segoe UI', Arial, sans-serif" font-size="15" font-weight="700" fill="#1F3864" text-anchor="middle">Power Connectors — Size Hierarchy</text>
    <rect x="80" y="100" width="56" height="180" fill="#F5F5F5" stroke="#333" rx="3" /><rect x="84" y="105" width="20" height="10" fill="#444" rx="1" /><rect x="108" y="105" width="20" height="10" fill="#444" rx="1" /><rect x="84" y="119" width="20" height="10" fill="#444" rx="1" /><rect x="108" y="119" width="20" height="10" fill="#444" rx="1" /><rect x="84" y="133" width="20" height="10" fill="#444" rx="1" /><rect x="108" y="133" width="20" height="10" fill="#444" rx="1" /><rect x="84" y="147" width="20" height="10" fill="#444" rx="1" /><rect x="108" y="147" width="20" height="10" fill="#444" rx="1" /><rect x="84" y="161" width="20" height="10" fill="#444" rx="1" /><rect x="108" y="161" width="20" height="10" fill="#444" rx="1" /><rect x="84" y="175" width="20" height="10" fill="#444" rx="1" /><rect x="108" y="175" width="20" height="10" fill="#444" rx="1" /><rect x="84" y="189" width="20" height="10" fill="#444" rx="1" /><rect x="108" y="189" width="20" height="10" fill="#444" rx="1" /><rect x="84" y="203" width="20" height="10" fill="#444" rx="1" /><rect x="108" y="203" width="20" height="10" fill="#444" rx="1" /><rect x="84" y="217" width="20" height="10" fill="#444" rx="1" /><rect x="108" y="217" width="20" height="10" fill="#444" rx="1" /><rect x="84" y="231" width="20" height="10" fill="#444" rx="1" /><rect x="108" y="231" width="20" height="10" fill="#444" rx="1" /><rect x="84" y="245" width="20" height="10" fill="#444" rx="1" /><rect x="108" y="245" width="20" height="10" fill="#444" rx="1" /><rect x="84" y="259" width="20" height="10" fill="#444" rx="1" /><rect x="108" y="259" width="20" height="10" fill="#444" rx="1" /><text x="108" y="88" font-family="'Segoe UI', Arial, sans-serif" font-size="13" font-weight="700" fill="#1F3864" text-anchor="middle">24-pin ATX</text><text x="108" y="300" font-family="'Segoe UI', Arial, sans-serif" font-size="11" fill="#333" text-anchor="middle">Mainboard power</text><text x="108" y="315" font-family="'Segoe UI', Arial, sans-serif" font-size="10" fill="#666" text-anchor="middle">(largest connector)</text><rect x="260" y="100" width="56" height="60" fill="#F5F5F5" stroke="#333" rx="3" /><rect x="264" y="105" width="20" height="10" fill="#444" rx="1" /><rect x="288" y="105" width="20" height="10" fill="#444" rx="1" /><rect x="264" y="119" width="20" height="10" fill="#444" rx="1" /><rect x="288" y="119" width="20" height="10" fill="#444" rx="1" /><rect x="264" y="133" width="20" height="10" fill="#444" rx="1" /><rect x="288" y="133" width="20" height="10" fill="#444" rx="1" /><rect x="264" y="147" width="20" height="10" fill="#444" rx="1" /><rect x="288" y="147" width="20" height="10" fill="#444" rx="1" /><text x="288" y="88" font-family="'Segoe UI', Arial, sans-serif" font-size="13" font-weight="700" fill="#1F3864" text-anchor="middle">8-pin EPS</text><text x="288" y="180" font-family="'Segoe UI', Arial, sans-serif" font-size="11" fill="#333" text-anchor="middle">CPU power</text><text x="288" y="195" font-family="'Segoe UI', Arial, sans-serif" font-size="10" fill="#666" text-anchor="middle">(near CPU socket)</text><rect x="440" y="100" width="84" height="44" fill="#2A2A2A" stroke="#333" rx="3" /><rect x="444" y="105" width="20" height="10" fill="#888" rx="1" /><rect x="468" y="105" width="20" height="10" fill="#888" rx="1" /><rect x="444" y="119" width="20" height="10" fill="#888" rx="1" /><rect x="468" y="119" width="20" height="10" fill="#888" rx="1" /><rect x="444" y="133" width="20" height="10" fill="#888" rx="1" /><rect x="468" y="133" width="20" height="10" fill="#888" rx="1" /><rect x="496" y="119" width="10" height="10" fill="#888" rx="1" /><rect x="510" y="119" width="10" height="10" fill="#888" rx="1" /><text x="482" y="88" font-family="'Segoe UI', Arial, sans-serif" font-size="13" font-weight="700" fill="#1F3864" text-anchor="middle">6+2 pin PCIe</text><text x="482" y="165" font-family="'Segoe UI', Arial, sans-serif" font-size="11" fill="#333" text-anchor="middle">GPU power</text><text x="482" y="180" font-family="'Segoe UI', Arial, sans-serif" font-size="10" fill="#666" text-anchor="middle">(from PSU to GPU)</text><path d="M 640,110 L 700,110 L 700,130 L 695,130 L 690,135 L 640,135 Z" fill="#2A2A2A" stroke="#333" /><rect x="648" y="115" width="6" height="10" fill="#888" /><rect x="657" y="115" width="6" height="10" fill="#888" /><rect x="666" y="115" width="6" height="10" fill="#888" /><rect x="675" y="115" width="6" height="10" fill="#888" /><rect x="684" y="115" width="6" height="10" fill="#888" /><text x="670" y="98" font-family="'Segoe UI', Arial, sans-serif" font-size="13" font-weight="700" fill="#1F3864" text-anchor="middle">SATA Power</text><text x="670" y="165" font-family="'Segoe UI', Arial, sans-serif" font-size="11" fill="#333" text-anchor="middle">Drive power</text><text x="670" y="180" font-family="'Segoe UI', Arial, sans-serif" font-size="10" fill="#666" text-anchor="middle">(L-shape, 15 pin)</text>
    <text x="400" y="365" font-family="'Segoe UI', Arial, sans-serif" font-size="11" fill="#666" text-anchor="middle" font-style="italic">The 24-pin ATX is the largest connector on any modern motherboard</text>
  </svg>